<svg width="24" height="24" viewBox="0 0 24 24" fill="none" xmlns="http://www.w3.org/2000/svg">
<path d="M1.14855 0.0421753C0.717299 0.154675 0.337612 0.46405 0.140737 0.867174C-0.0233258 1.19999 -0.0233258 1.7953 0.136049 2.1328C0.225112 2.3203 1.18136 3.29999 5.05792 7.18592L9.8673 12L5.05792 16.8187C-0.168638 22.05 0.0610492 21.7969 0.0094867 22.3875C-0.0373883 22.9781 0.257924 23.5125 0.796987 23.8078C1.08292 23.9625 1.1298 23.9766 1.50011 23.9719C1.81886 23.9719 1.94542 23.9484 2.13292 23.8594C2.32511 23.7703 3.27667 22.8422 7.18605 18.9422L12.0001 14.1328L16.8189 18.9422C20.7235 22.8422 21.6751 23.7703 21.8673 23.8594C22.0548 23.9484 22.1814 23.9719 22.5001 23.9719C22.8657 23.9766 22.922 23.9625 23.1939 23.8172C23.522 23.6391 23.6626 23.4891 23.8501 23.1375C24.0189 22.8047 24.0282 22.2187 23.8595 21.8672C23.7704 21.675 22.8423 20.7234 18.9423 16.8187L14.1329 12L18.9423 7.18124C22.8423 3.27655 23.7704 2.32499 23.8595 2.1328C23.9485 1.9453 23.972 1.81874 23.972 1.49999C23.9767 1.13436 23.9626 1.07811 23.8173 0.806236C23.6392 0.478111 23.4892 0.337486 23.1376 0.149986C22.8048 -0.0187626 22.2189 -0.0281391 21.8673 0.140612C21.6751 0.229675 20.7235 1.1578 16.8189 5.0578L12.0001 9.86718L7.18605 5.0578C3.25792 1.13436 2.32511 0.229675 2.13761 0.1453C1.88917 0.0327988 1.38292 -0.0234509 1.14855 0.0421753Z" fill="white" fill-opacity="0.7"/>
</svg>
